<svg width="18" height="18" viewBox="0 0 18 18" fill="none" xmlns="http://www.w3.org/2000/svg">
<path d="M2.66546 7.98923C2.72438 7.97967 2.78401 7.97526 2.84367 7.97603H13.0026L12.7811 7.873C12.5645 7.77052 12.3676 7.63104 12.1989 7.46088L9.35013 4.61206C8.97494 4.2539 8.9119 3.67773 9.20074 3.2469C9.53691 2.78779 10.1816 2.68811 10.6407 3.02428C10.6778 3.05146 10.7131 3.08108 10.7462 3.11295L15.8978 8.26452C16.3004 8.66667 16.3007 9.31901 15.8986 9.72161C15.8983 9.72187 15.898 9.72216 15.8978 9.72241L10.7462 14.874C10.3433 15.2758 9.69094 15.2749 9.28912 14.872C9.2575 14.8402 9.22798 14.8065 9.20074 14.7709C8.9119 14.3401 8.97494 13.7639 9.35013 13.4058L12.1938 10.5518C12.345 10.4005 12.5188 10.2736 12.709 10.1758L13.018 10.0367H2.90037C2.37404 10.0562 1.91227 9.68854 1.81339 9.1712C1.72231 8.60951 2.10378 8.08035 2.66546 7.98923Z" fill="white"/>
</svg>
