<svg width="25" height="25" viewBox="0 0 25 25" fill="none" xmlns="http://www.w3.org/2000/svg">
<path d="M20.9816 19.5106L17.6034 16.1324C18.6272 14.7921 19.1888 13.1664 19.189 11.4509C19.189 9.38364 18.3838 7.43992 16.9218 5.97813C15.46 4.51634 13.5165 3.71118 11.449 3.71118C9.38166 3.71118 7.43794 4.51634 5.97615 5.97813C2.95847 8.99606 2.95847 13.9063 5.97615 16.9238C7.43794 18.3858 9.38166 19.191 11.449 19.191C13.1644 19.1907 14.7901 18.6292 16.1304 17.6054L19.5087 20.9836C19.7119 21.1871 19.9786 21.2888 20.2452 21.2888C20.5117 21.2888 20.7784 21.1871 20.9816 20.9836C21.3885 20.577 21.3885 19.9173 20.9816 19.5106ZM7.44913 15.4508C5.24373 13.2454 5.24398 9.65677 7.44913 7.45111C8.5175 6.383 9.9381 5.79452 11.449 5.79452C12.9601 5.79452 14.3804 6.383 15.4488 7.45111C16.5172 8.51948 17.1057 9.94007 17.1057 11.4509C17.1057 12.9621 16.5172 14.3824 15.4488 15.4508C14.3804 16.5192 12.9601 17.1076 11.449 17.1076C9.9381 17.1076 8.5175 16.5192 7.44913 15.4508Z" fill="white"/>
</svg>
